<?xml version="1.0" encoding="UTF-8"?>
<svg version="1.1" viewBox="0 0 2048 744" width="2000" height="727" xmlns="http://www.w3.org/2000/svg">
<path transform="translate(1969,34)" d="m0 0h9l20 81 18 73 13 54v2h-8l-18-54-11-25-8-16-8-14-9-12-11-13-13-12-17-12-25-12-21-7-23-5-22-3-28-2h-87v627l1 7 100 1v9h-319l-1-3 1-6 100-1 1-635-82 1-30 2-27 4-20 5-6 2v13l9 154-1 1h-7l-5-12-15-41-11-25-10-19-10-15-9-11-6-5-9 10-9 14-18 37-11 28-11 31-3 9-1 1h-9v-9l18-160-6-2-19-7-21-5-21-2-277-1v295l164-1 27-2 26-4 19-5 16-7 16-10 14-14 9-14 7-15 5-17 3-17 1-9 1-23 1-5h7l1 2-1 293h-7l-3-31-4-20-6-18-8-16-8-11-9-10-14-10-15-8-19-7-19-5-22-4-23-2h-159l-1 317h275l24-1 23-3 24-5 24-8 25-12 15-10 10-8 10-9 11-11 11-14 11-16 14-25 10-21 12-31 5-14 1-1h7l-1 7-16 54-18 60-19 64-10 33-1 1h-7l-5-5-14-4-26-3-17-1-52-1-519-1v-14l7-1h78v-216h-287l-15 1-10 13-14 18-13 17-11 14-28 36-10 13-28 36-10 13-11 14-14 18-13 17-4 5 61 1h26l17-1 23-4 22-6 19-7 16-8 14-8 19-14 15-14 10-10 9-11 10-13 12-18 13-22 9-16 9-17 11-26 4-10 1-1h8l-4 16-21 67-14 45-21 67-11 35-2 3h-6l-8-4-16-3-26-3-47-3-32-1-479-1-1-1v-9h98v-632h-98v-9l1-1h46l41 1h139l40-1h44l5 1-1 9h-97v632l34-1 82-1 17-1 14-19 14-18 12-16 14-18 10-13 16-21 14-18 12-16 14-18 12-16 14-18 15-20 11-14 10-13 16-21 10-13 26-34 10-13 13-17 10-13 16-21 26-34 14-18 12-16 14-18 13-17 10-13 29-38 14-18 9-12 10-13 16-21 14-18 10-14-45-1h-60l-1-1v-8h160l488 1h414l81-1 27-1 27-3 10-3zm-1103 32-16 21-26 34-14 18-9 12-16 21-10 13-16 21-10 13-32 42-10 13-16 21-39 51-10 13-16 21-42 55-10 13v2h293v-384z" fill="#ffffff"/>
</svg>
